HIERARCHY
ROOT Hips
{
	OFFSET	0.00	0.00	0.00
	CHANNELS 6 Xposition Yposition Zposition Zrotation Xrotation Yrotation
	JOINT LeftUpLeg
	{
		OFFSET	 0.126116	-0.014019	-0.065224
		CHANNELS 3 Zrotation Xrotation Yrotation
		JOINT LeftLeg
		{
			OFFSET	 0.000000	 0.000000	 0.569914
			CHANNELS 3 Zrotation Xrotation Yrotation
			JOINT LeftFoot
			{
				OFFSET	 0.000000	 0.000000	 0.544423
				CHANNELS 3 Zrotation Xrotation Yrotation
				JOINT LeftToeBase
				{
					OFFSET	 0.000000	 0.000000	 0.207117
					CHANNELS 3 Zrotation Xrotation Yrotation
					End Site
					{
						OFFSET	 0.000000	 0.000000	 0.207117
					}
				}
			}
		}
	}
	JOINT RightUpLeg
	{
		OFFSET	-0.124023	-0.008373	-0.065224
		CHANNELS 3 Zrotation Xrotation Yrotation
		JOINT RightLeg
		{
			OFFSET	 0.000000	 0.000000	 0.570047
			CHANNELS 3 Zrotation Xrotation Yrotation
			JOINT RightFoot
			{
				OFFSET	 0.000000	 0.000000	 0.544354
				CHANNELS 3 Zrotation Xrotation Yrotation
				JOINT RightToeBase
				{
					OFFSET	 0.000000	 0.000000	 0.207540
					CHANNELS 3 Zrotation Xrotation Yrotation
					End Site
					{
						OFFSET	 0.000000	 0.000000	 0.207540
					}
				}
			}
		}
	}
	JOINT Spine
	{
		OFFSET	 0.000184	-0.007763	 0.117403
		CHANNELS 3 Zrotation Xrotation Yrotation
		JOINT Spine1
		{
			OFFSET	 0.000000	 0.000000	 0.137269
			CHANNELS 3 Zrotation Xrotation Yrotation
			JOINT Spine2
			{
				OFFSET	 0.000000	 0.000000	 0.156879
				CHANNELS 3 Zrotation Xrotation Yrotation
				JOINT LeftShoulder
				{
					OFFSET	 0.080501	-0.002496	 0.160144
					CHANNELS 3 Zrotation Xrotation Yrotation
					JOINT LeftArm
					{
						OFFSET	 0.000000	 0.000000	 0.164363
						CHANNELS 3 Zrotation Xrotation Yrotation
						JOINT LeftForeArm
						{
							OFFSET	 0.000000	 0.000000	 0.364576
							CHANNELS 3 Zrotation Xrotation Yrotation
							JOINT LeftHand
							{
								OFFSET	 0.000000	 0.000000	 0.360812
								CHANNELS 3 Zrotation Xrotation Yrotation
								JOINT LeftHandIndex1
								{
									OFFSET	 0.000000	 0.000000	 0.086006
									CHANNELS 3 Zrotation Xrotation Yrotation
									JOINT LeftHandIndex2
									{
										OFFSET	 0.000000	 0.000000	 0.047237
										CHANNELS 3 Zrotation Xrotation Yrotation
										JOINT LeftHandIndex3
										{
											OFFSET	-0.004284	-0.000551	 0.038165
											CHANNELS 3 Zrotation Xrotation Yrotation
											End Site
											{
												OFFSET	-0.004284	-0.000551	 0.038165
											}
										}
									}
								}
							}
						}
					}
				}
				JOINT Neck
				{
					OFFSET	 0.000000	 0.000000	 0.176489
					CHANNELS 3 Zrotation Xrotation Yrotation
					JOINT Head
					{
						OFFSET	 0.000000	-0.001747	 0.077940
						CHANNELS 3 Zrotation Xrotation Yrotation
						End Site
						{
							OFFSET	 0.000000	-0.001747	 0.077940
						}
					}
				}
				JOINT RightShoulder
				{
					OFFSET	-0.080363	 0.000306	 0.159706
					CHANNELS 3 Zrotation Xrotation Yrotation
					JOINT RightArm
					{
						OFFSET	 0.000000	 0.000000	 0.164196
						CHANNELS 3 Zrotation Xrotation Yrotation
						JOINT RightForeArm
						{
							OFFSET	 0.000000	 0.000000	 0.365611
							CHANNELS 3 Zrotation Xrotation Yrotation
							JOINT RightHand
							{
								OFFSET	 0.000000	 0.000000	 0.360648
								CHANNELS 3 Zrotation Xrotation Yrotation
								JOINT RightHandIndex1
								{
									OFFSET	 0.000000	 0.000000	 0.069977
									CHANNELS 3 Zrotation Xrotation Yrotation
									JOINT RightHandIndex2
									{
										OFFSET	 0.000000	 0.000000	 0.052305
										CHANNELS 3 Zrotation Xrotation Yrotation
										JOINT RightHandIndex3
										{
											OFFSET	 0.009002	-0.000782	 0.042196
											CHANNELS 3 Zrotation Xrotation Yrotation
											End Site
											{
												OFFSET	 0.009002	-0.000782	 0.042196
											}
										}
									}
								}
							}
						}
					}
				}
			}
		}
	}
}
MOTION
Frames:    4
Frame Time: 0.03333334
-0.640278	-0.136604	 1.266530	-159.494300	 3.797338	 8.072544	 10.684700	-10.501750	 164.279200	-8.974625	-30.088690	-3.533921	-61.692970	 77.522580	 59.896430	-2.385833	 28.452760	 0.000004	 5.747167	-45.544150	 179.101300	-27.984870	-56.658260	-14.400100	 25.512920	 32.787260	-36.116020	 2.384659	 28.388700	-0.000001	 72.775070	-11.811380	-16.066900	 46.290050	 24.312700	-4.696123	-14.651380	-4.173543	 5.031693	-91.776130	 78.527420	 180.000000	 17.712260	 45.646130	-32.586180	-7.723846	-5.684100	-37.616400	 5.960990	-26.693330	-4.687170	-4.131196	 21.524690	 0.986298	-5.167839	 0.733520	 3.519257	-1.378229	 35.397820	-2.634230	-14.068580	 16.445170	-7.633818	-27.980680	 2.900087	 5.637581	 89.782170	 78.289720	 179.994600	 7.886915	 57.840820	 1.343313	-4.522234	-0.149414	 0.478286	 97.494450	-59.910940	-21.203540	 5.715225	 19.176060	-3.692089	 5.027514	 0.245388	-9.378011	-2.350882	 35.473990	 5.254307
-0.639745	-0.135929	 1.267248	-159.845500	 3.942378	 8.495115	 11.359460	-10.817700	 163.808300	-8.740064	-30.064830	-3.412569	-65.609680	 78.964490	 63.217780	-2.385833	 28.452760	 0.000004	 6.747078	-45.587640	 178.963500	-24.097880	-56.949940	-11.120220	 35.591630	 40.868440	-40.458120	 2.384659	 28.388700	-0.000001	 72.548710	-13.736530	-17.023130	 46.590520	 26.622150	-5.813420	-14.568700	-4.773678	 5.150266	-91.776150	 78.527400	 180.000000	 17.662280	 45.517970	-32.699860	-7.332637	-5.970836	-37.521760	 6.429156	-26.343730	-4.889015	-4.131196	 21.524690	 0.986298	-5.167839	 0.733520	 3.519257	-1.378229	 35.397820	-2.634230	-13.991680	 16.316120	-7.838715	-28.041290	 2.764533	 5.429877	 89.782140	 78.297290	 179.993600	 7.562396	 57.926270	 1.837309	-5.296974	-0.155059	 0.478921	 97.988980	-58.690670	-19.899490	 5.715225	 19.176060	-3.692089	 5.027514	 0.245388	-9.378011	-2.350882	 35.473990	 5.254307
-0.638178	-0.134590	 1.268006	-160.657200	 4.171709	 8.687312	 13.232920	-11.248520	 163.560700	-8.162899	-29.815110	-3.097144	-76.917110	 80.590230	 73.628650	-2.385833	 28.452760	 0.000004	 5.235395	-45.853250	 178.178800	-20.169740	-56.962390	-7.790795	 42.358530	 46.578480	-43.211250	 2.384659	 28.388700	-0.000001	 72.945370	-15.003510	-17.768020	 46.693240	 28.478660	-6.076643	-14.510840	-5.291762	 5.171804	-91.776160	 78.527360	 180.000000	 17.478460	 45.426200	-32.485020	-6.767995	-6.461463	-37.733860	 6.842735	-26.093530	-5.113098	-4.131196	 21.524690	 0.986298	-5.167839	 0.733520	 3.519257	-1.378229	 35.397820	-2.634230	-14.017360	 16.362880	-7.701964	-28.010000	 2.615516	 5.090221	 89.782100	 78.307740	 179.992500	 6.750664	 58.229900	 2.669403	-6.608510	-0.166409	 0.491835	 98.317710	-57.622880	-17.691990	 5.715225	 19.176060	-3.692089	 5.027514	 0.245388	-9.378011	-2.350882	 35.473990	 5.254307
-0.635329	-0.132118	 1.268154	-161.948800	 4.907702	 8.688463	 15.194470	-11.997610	 163.671200	-6.790727	-29.547810	-2.390461	-97.379300	 82.104120	 92.360700	-2.385833	 28.452760	 0.000004	 5.188156	-46.538650	 178.130400	-18.069240	-56.549090	-5.990931	 46.125320	 50.008890	-44.509960	 2.384659	 28.388700	-0.000001	 74.236700	-15.073290	-17.571990	 46.396660	 28.328080	-4.296215	-14.517590	-4.949720	 4.397656	-91.776180	 78.527400	-180.000000	 17.595140	 45.261920	-32.430880	-6.180927	-6.978549	-37.958710	 7.260552	-25.846960	-5.356479	-4.131196	 21.524690	 0.986298	-5.167839	 0.733520	 3.519257	-1.378229	 35.397820	-2.634230	-13.913250	 16.833060	-7.783397	-27.909330	 2.404931	 5.285017	 89.782180	 78.313050	 179.992100	 5.142920	 58.491100	 4.105706	-8.043144	-0.177478	 0.513554	 95.806690	-58.462890	-17.334530	 5.715225	 19.176060	-3.692089	 5.027514	 0.245388	-9.378011	-2.350882	 35.473990	 5.254307
